<svg xmlns="http://www.w3.org/2000/svg" width="192" height="192"><path d="M156 20c18.907 15.588 33.12 37.238 36 62 2.075 29.35-3.432 53.904-22.293 76.781-16.009 18.296-38.29 31.705-62.925 33.447-29.646 1.317-53.616-5.067-76.157-24.79C12.627 150.57.723 128.173-.383 103.288c-.736-29.478 6.837-53.342 27.219-75.09C61.396-6.923 117.389-10.228 156 20z" fill="#7262F2"/><path d="M126 70l3.438 2.938 1.933 1.652c.899.778 1.788 1.57 2.629 2.41a67.881 67.881 0 0 1-.438 4.563l-.308 2.503L133 86l2.512.316c4.004.785 7.533 2.089 11.3 3.621l2.061.803c5.002 2.01 5.002 2.01 6.127 4.26-.747.23-1.494.461-2.263.7a689.984 689.984 0 0 0-10.112 3.3l-3.563 1.098-3.398 1.152-3.142 1.016c-2.88 1.98-3.053 2.647-3.876 5.906L128 112l3.073-1.102a5571.39 5571.39 0 0 1 11.289-4.025c1.629-.58 3.257-1.162 4.885-1.746 2.34-.838 4.68-1.67 7.023-2.502l2.206-.795c2.973-1.05 5.346-1.83 8.524-1.83l1-8c5.413 0 9.04 5.08 12.79 8.685 1.051.996 2.118 1.975 3.202 2.935 3.549 3.147 6.625 6.221 9.008 10.38.148 4.814-1.173 8.59-3 13l-.8 2.317c-.69 1.945-1.472 3.804-2.325 5.683l-.905 2.02C172.705 161.216 151.75 178.852 127 188l-2.598 1.055c-2.36.785-3.927 1.215-6.402.945-3.18-1.887-5.694-4.11-8-7v-2h-2v-2l-1.807-.784c-2.377-1.318-3.57-2.576-5.279-4.673-4.55-5.375-9.54-10.276-14.539-15.23l-2.813-2.8c-1.724-1.716-3.45-3.43-5.178-5.145-4.151-4.124-8.281-8.27-12.404-12.423l-4.317-4.337c-.98-.984-1.957-1.97-2.935-2.955-5.165-5.21-10.363-10.316-15.939-15.089-2.853-2.494-5.508-5.175-8.164-7.876l-1.574-1.588A2427.89 2427.89 0 0 1 29 102l-2-2c4.063.664 7.593 1.937 11.395 3.504l3.642 1.494 3.775 1.565 3.834 1.576c3.12 1.283 6.238 2.57 9.354 3.861l2-8-3.688-1.187C51.127 100.757 45.07 98.373 39 96c1-2 1-2 3.285-2.834l2.992-.83 3.244-.965a389.253 389.253 0 0 1 6.82-1.922c5.816-1.494 5.816-1.494 9.859-5.507.68-2.44.68-2.44.8-5.942 3.912 1.594 6.505 3.579 9 7 .322 7.652-2.018 15.683-3.563 23.125l-.708 3.477c-.572 2.8-1.15 5.6-1.729 8.398h11l1.059-5.293L86 90c3.876 1.292 4.271 2.677 6.285 6.172l1.858 3.203 1.92 3.375 1.931 3.328c2.655 4.61 5.024 8.968 7.006 13.922h11l.387-3.9c.552-4.958 1.438-9.807 2.425-14.694l.527-2.644c.365-1.826.731-3.651 1.1-5.476.565-2.805 1.122-5.612 1.678-8.419l1.07-5.336.506-2.55c1.192-5.866 1.192-5.866 2.307-6.981z" fill="#7557DF"/><path d="M79 69c3.636-.987 6.389-1.164 10 0 3.856 4.337 6.384 9.318 9.063 14.438.76 1.39 1.526 2.779 2.294 4.166a503.853 503.853 0 0 1 4.128 7.62c1.255 2.61 1.255 2.61 2.515 3.776l7-30h12c-3.092 17.054-6.374 34.05-10 51-3.875.743-7.15.96-11 0-3.403-3.399-5.36-7.414-7.5-11.688l-1.797-3.341a354.654 354.654 0 0 1-3.252-6.2C90.084 93.58 90.084 93.58 86 90l-.25 3.875c-.52 5.304-1.592 10.431-2.75 15.625l-.54 2.43c-1.323 5.795-1.323 5.795-2.46 8.07H69c.631-8.612 2.24-16.932 3.956-25.378.483-2.38.956-4.76 1.429-7.142l.924-4.59.423-2.13A85.886 85.886 0 0 1 79 69z" fill="#FBFBFD"/><path d="M135 77c6.948 2.24 13.73 4.772 20.5 7.5l3.031 1.184 2.875 1.16 2.604 1.037C166 89 166 89 167 92c-.114 2.913-.696 5.388-2 8-2.7 1.644-4.586 2.507-7.527 3.406l-2.257.773a388.724 388.724 0 0 1-7.154 2.321c-1.604.539-3.208 1.08-4.81 1.625C131.69 112 131.69 112 128 112c-.052-3.14-.078-5.123 1-8 2.648-2.127 5.806-2.938 9-4 2.056-.767 4.105-1.55 6.154-2.336 3.274-1.242 6.562-2.45 9.846-3.664l-21-8c1-8 1-8 2-9z" fill="#FBFAFD"/><path d="M67 78c-.427 3.387-1.184 6.09-3 9-3.834 2.291-7.899 3.39-12.188 4.563l-3.427 1.033A451.956 451.956 0 0 1 40 95l21 9-1 9a464.48 464.48 0 0 1-32-13l1-10c7.757-3.171 15.588-6.052 23.5-8.813l3.57-1.271 3.399-1.186 3.076-1.08C65 77 65 77 67 78z" fill="#FBFBFD"/><path d="M91 72c2.386 1.952 4.69 3.958 7 6l1.542 1.285c10.246 8.606 10.246 8.606 10.782 13.938-.525 2.77-1.205 5.193-2.324 7.777-4.197-5.073-7.423-10.524-10.75-16.188l-1.824-3.06-1.723-2.92-1.573-2.665C91 74 91 74 91 72z" fill="#6856D2"/><path d="M162 102c-.961.38-.961.38-1.941.77l-2.621 1.043-2.766 1.097a154.01 154.01 0 0 0-6.484 2.84c-3.04 1.192-4.973 1.542-8.188 1.25 3.682-2.455 7.41-3.723 11.563-5.188l2.365-.865c5.83-2.068 5.83-2.068 8.072-.947z" fill="#644EAF"/><path d="M27 100c4.389.665 7.981 2.188 12 4l-3 1-2 2a858.147 858.147 0 0 1-3.5-2.938l-1.969-1.652L27 101v-1z" fill="#574FB3"/></svg>